<mxfile host="app.diagrams.net" modified="2021-09-17T08:49:15.551Z" agent="5.0 (Windows NT 10.0; Win64; x64) AppleWebKit/537.36 (KHTML, like Gecko) Chrome/93.0.4577.82 Safari/537.36" etag="6H7lmUkjuJHclHD-JyAU" version="15.2.7" type="github">
  <diagram name="Page-1" id="edf60f1a-56cd-e834-aa8a-f176f3a09ee4">
    <mxGraphModel dx="2522" dy="762" grid="1" gridSize="10" guides="1" tooltips="1" connect="1" arrows="1" fold="1" page="1" pageScale="1" pageWidth="1100" pageHeight="850" background="none" math="0" shadow="0">
      <root>
        <mxCell id="0" />
        <mxCell id="1" parent="0" />
        <mxCell id="7Pt-dEw9oAocELptS7nf-4" style="edgeStyle=orthogonalEdgeStyle;rounded=0;orthogonalLoop=1;jettySize=auto;html=1;exitX=0.5;exitY=1;exitDx=0;exitDy=0;entryX=0.5;entryY=0;entryDx=0;entryDy=0;" parent="1" source="7Pt-dEw9oAocELptS7nf-1" target="7Pt-dEw9oAocELptS7nf-5" edge="1">
          <mxGeometry relative="1" as="geometry">
            <mxPoint x="730" y="510" as="targetPoint" />
          </mxGeometry>
        </mxCell>
        <mxCell id="7Pt-dEw9oAocELptS7nf-1" value="Product" style="whiteSpace=wrap;html=1;rounded=0;shadow=1;labelBackgroundColor=none;strokeWidth=1;fontFamily=Verdana;fontSize=8;align=center;" parent="1" vertex="1">
          <mxGeometry x="542.5" y="370" width="145" height="30" as="geometry" />
        </mxCell>
        <mxCell id="EK-wam1igdU6rYTjhElC-8" value="" style="edgeStyle=orthogonalEdgeStyle;rounded=0;orthogonalLoop=1;jettySize=auto;html=1;exitX=0.5;exitY=1;exitDx=0;exitDy=0;" edge="1" parent="1" source="7Pt-dEw9oAocELptS7nf-5" target="EK-wam1igdU6rYTjhElC-7">
          <mxGeometry relative="1" as="geometry">
            <Array as="points">
              <mxPoint x="615" y="500" />
              <mxPoint x="391" y="500" />
            </Array>
          </mxGeometry>
        </mxCell>
        <mxCell id="EK-wam1igdU6rYTjhElC-10" value="" style="edgeStyle=orthogonalEdgeStyle;rounded=0;orthogonalLoop=1;jettySize=auto;html=1;exitX=0.5;exitY=1;exitDx=0;exitDy=0;" edge="1" parent="1" source="7Pt-dEw9oAocELptS7nf-5" target="EK-wam1igdU6rYTjhElC-9">
          <mxGeometry relative="1" as="geometry">
            <Array as="points">
              <mxPoint x="615" y="500" />
              <mxPoint x="881" y="500" />
            </Array>
          </mxGeometry>
        </mxCell>
        <mxCell id="7Pt-dEw9oAocELptS7nf-5" value="&lt;span&gt;HasBeenTriedToSync&lt;/span&gt;" style="rhombus;whiteSpace=wrap;html=1;rounded=0;shadow=1;labelBackgroundColor=none;strokeWidth=1;fontFamily=Verdana;fontSize=8;align=center;" parent="1" vertex="1">
          <mxGeometry x="470" y="426" width="290" height="55" as="geometry" />
        </mxCell>
        <mxCell id="7Pt-dEw9oAocELptS7nf-24" value="" style="edgeStyle=orthogonalEdgeStyle;rounded=0;orthogonalLoop=1;jettySize=auto;html=1;" parent="1" edge="1">
          <mxGeometry relative="1" as="geometry">
            <mxPoint x="1370" y="690" as="targetPoint" />
          </mxGeometry>
        </mxCell>
        <mxCell id="ZtlSwxrQEoG2gbqUKx1r-10" value="SyncProcessor" style="swimlane;fontStyle=0;childLayout=stackLayout;horizontal=1;startSize=26;fillColor=none;horizontalStack=0;resizeParent=1;resizeParentMax=0;resizeLast=0;collapsible=1;marginBottom=0;" parent="1" vertex="1">
          <mxGeometry x="2530" y="90" width="140" height="104" as="geometry" />
        </mxCell>
        <mxCell id="ZtlSwxrQEoG2gbqUKx1r-11" value="+ field: type" style="text;strokeColor=none;fillColor=none;align=left;verticalAlign=top;spacingLeft=4;spacingRight=4;overflow=hidden;rotatable=0;points=[[0,0.5],[1,0.5]];portConstraint=eastwest;" parent="ZtlSwxrQEoG2gbqUKx1r-10" vertex="1">
          <mxGeometry y="26" width="140" height="26" as="geometry" />
        </mxCell>
        <mxCell id="ZtlSwxrQEoG2gbqUKx1r-12" value="+ field: type" style="text;strokeColor=none;fillColor=none;align=left;verticalAlign=top;spacingLeft=4;spacingRight=4;overflow=hidden;rotatable=0;points=[[0,0.5],[1,0.5]];portConstraint=eastwest;" parent="ZtlSwxrQEoG2gbqUKx1r-10" vertex="1">
          <mxGeometry y="52" width="140" height="26" as="geometry" />
        </mxCell>
        <mxCell id="ZtlSwxrQEoG2gbqUKx1r-13" value="+ field: type" style="text;strokeColor=none;fillColor=none;align=left;verticalAlign=top;spacingLeft=4;spacingRight=4;overflow=hidden;rotatable=0;points=[[0,0.5],[1,0.5]];portConstraint=eastwest;" parent="ZtlSwxrQEoG2gbqUKx1r-10" vertex="1">
          <mxGeometry y="78" width="140" height="26" as="geometry" />
        </mxCell>
        <mxCell id="EK-wam1igdU6rYTjhElC-65" value="" style="edgeStyle=orthogonalEdgeStyle;rounded=0;orthogonalLoop=1;jettySize=auto;html=1;" edge="1" parent="1" source="EK-wam1igdU6rYTjhElC-7" target="EK-wam1igdU6rYTjhElC-64">
          <mxGeometry relative="1" as="geometry" />
        </mxCell>
        <mxCell id="EK-wam1igdU6rYTjhElC-7" value="ProductHasBeenTriedToSync" style="whiteSpace=wrap;html=1;rounded=0;shadow=1;fontFamily=Verdana;fontSize=8;strokeWidth=1;" vertex="1" parent="1">
          <mxGeometry x="255" y="516" width="274" height="44" as="geometry" />
        </mxCell>
        <mxCell id="EK-wam1igdU6rYTjhElC-126" style="edgeStyle=orthogonalEdgeStyle;rounded=0;orthogonalLoop=1;jettySize=auto;html=1;exitX=0.75;exitY=1;exitDx=0;exitDy=0;entryX=1;entryY=0.5;entryDx=0;entryDy=0;" edge="1" parent="1" source="EK-wam1igdU6rYTjhElC-9" target="EK-wam1igdU6rYTjhElC-124">
          <mxGeometry relative="1" as="geometry" />
        </mxCell>
        <mxCell id="EK-wam1igdU6rYTjhElC-9" value="ProductNeverBeenTriedToSync" style="whiteSpace=wrap;html=1;rounded=0;shadow=1;fontFamily=Verdana;fontSize=8;strokeWidth=1;" vertex="1" parent="1">
          <mxGeometry x="780" y="520" width="240" height="40" as="geometry" />
        </mxCell>
        <mxCell id="EK-wam1igdU6rYTjhElC-19" value="No" style="text;html=1;align=center;verticalAlign=middle;resizable=0;points=[];autosize=1;strokeColor=none;fillColor=none;" vertex="1" parent="1">
          <mxGeometry x="665" y="500" width="30" height="20" as="geometry" />
        </mxCell>
        <mxCell id="EK-wam1igdU6rYTjhElC-20" value="Yes" style="text;html=1;align=center;verticalAlign=middle;resizable=0;points=[];autosize=1;strokeColor=none;fillColor=none;" vertex="1" parent="1">
          <mxGeometry x="560" y="510" width="40" height="20" as="geometry" />
        </mxCell>
        <mxCell id="EK-wam1igdU6rYTjhElC-71" value="" style="edgeStyle=orthogonalEdgeStyle;rounded=0;orthogonalLoop=1;jettySize=auto;html=1;" edge="1" parent="1" source="EK-wam1igdU6rYTjhElC-64" target="EK-wam1igdU6rYTjhElC-70">
          <mxGeometry relative="1" as="geometry" />
        </mxCell>
        <mxCell id="EK-wam1igdU6rYTjhElC-125" style="edgeStyle=orthogonalEdgeStyle;rounded=0;orthogonalLoop=1;jettySize=auto;html=1;exitX=1;exitY=0.5;exitDx=0;exitDy=0;entryX=1;entryY=0.5;entryDx=0;entryDy=0;" edge="1" parent="1" source="EK-wam1igdU6rYTjhElC-64" target="EK-wam1igdU6rYTjhElC-124">
          <mxGeometry relative="1" as="geometry">
            <Array as="points">
              <mxPoint x="940" y="615" />
              <mxPoint x="940" y="1110" />
            </Array>
          </mxGeometry>
        </mxCell>
        <mxCell id="EK-wam1igdU6rYTjhElC-135" style="edgeStyle=orthogonalEdgeStyle;rounded=0;orthogonalLoop=1;jettySize=auto;html=1;exitX=0;exitY=0.5;exitDx=0;exitDy=0;entryX=0.5;entryY=0;entryDx=0;entryDy=0;" edge="1" parent="1" source="EK-wam1igdU6rYTjhElC-64" target="EK-wam1igdU6rYTjhElC-119">
          <mxGeometry relative="1" as="geometry">
            <mxPoint x="-140" y="1080" as="targetPoint" />
          </mxGeometry>
        </mxCell>
        <mxCell id="EK-wam1igdU6rYTjhElC-64" value="&lt;span style=&quot;font-family: &amp;#34;helvetica&amp;#34; ; font-size: 12px&quot;&gt;isUpdatedSinceLastSync&lt;/span&gt;" style="rhombus;whiteSpace=wrap;html=1;rounded=0;shadow=1;fontFamily=Verdana;fontSize=8;strokeWidth=1;" vertex="1" parent="1">
          <mxGeometry x="285.25" y="590" width="212.75" height="50" as="geometry" />
        </mxCell>
        <mxCell id="EK-wam1igdU6rYTjhElC-77" style="edgeStyle=orthogonalEdgeStyle;rounded=0;orthogonalLoop=1;jettySize=auto;html=1;exitX=0;exitY=0.5;exitDx=0;exitDy=0;entryX=1;entryY=0.5;entryDx=0;entryDy=0;" edge="1" parent="1" source="EK-wam1igdU6rYTjhElC-99" target="EK-wam1igdU6rYTjhElC-73">
          <mxGeometry relative="1" as="geometry">
            <mxPoint x="290" y="773" as="sourcePoint" />
            <mxPoint x="170" y="765" as="targetPoint" />
          </mxGeometry>
        </mxCell>
        <mxCell id="EK-wam1igdU6rYTjhElC-91" style="edgeStyle=orthogonalEdgeStyle;rounded=0;orthogonalLoop=1;jettySize=auto;html=1;exitX=1;exitY=0.5;exitDx=0;exitDy=0;entryX=0;entryY=0.5;entryDx=0;entryDy=0;" edge="1" parent="1" source="EK-wam1igdU6rYTjhElC-99" target="EK-wam1igdU6rYTjhElC-74">
          <mxGeometry relative="1" as="geometry" />
        </mxCell>
        <mxCell id="EK-wam1igdU6rYTjhElC-100" value="" style="edgeStyle=orthogonalEdgeStyle;rounded=0;orthogonalLoop=1;jettySize=auto;html=1;" edge="1" parent="1" source="EK-wam1igdU6rYTjhElC-70" target="EK-wam1igdU6rYTjhElC-99">
          <mxGeometry relative="1" as="geometry" />
        </mxCell>
        <mxCell id="EK-wam1igdU6rYTjhElC-70" value="ProductNotUpdatedSinceLastSync" style="whiteSpace=wrap;html=1;rounded=0;shadow=1;fontFamily=Verdana;fontSize=8;strokeWidth=1;" vertex="1" parent="1">
          <mxGeometry x="283.5" y="660" width="215" height="75" as="geometry" />
        </mxCell>
        <mxCell id="EK-wam1igdU6rYTjhElC-134" style="edgeStyle=orthogonalEdgeStyle;rounded=0;orthogonalLoop=1;jettySize=auto;html=1;exitX=0;exitY=0.5;exitDx=0;exitDy=0;entryX=0.5;entryY=0;entryDx=0;entryDy=0;" edge="1" parent="1" source="EK-wam1igdU6rYTjhElC-73" target="EK-wam1igdU6rYTjhElC-119">
          <mxGeometry relative="1" as="geometry" />
        </mxCell>
        <mxCell id="EK-wam1igdU6rYTjhElC-73" value="&lt;span style=&quot;font-family: &amp;#34;helvetica&amp;#34; ; font-size: 12px&quot;&gt;ProductNotSynced(doesn&#39;tMatchConditions)&lt;/span&gt;" style="whiteSpace=wrap;html=1;rounded=0;shadow=1;fontFamily=Verdana;fontSize=8;strokeWidth=1;" vertex="1" parent="1">
          <mxGeometry x="-121.5" y="776.25" width="250" height="67.5" as="geometry" />
        </mxCell>
        <mxCell id="EK-wam1igdU6rYTjhElC-83" style="edgeStyle=orthogonalEdgeStyle;rounded=0;orthogonalLoop=1;jettySize=auto;html=1;exitX=0.5;exitY=1;exitDx=0;exitDy=0;entryX=0.5;entryY=0;entryDx=0;entryDy=0;" edge="1" parent="1" source="EK-wam1igdU6rYTjhElC-74" target="EK-wam1igdU6rYTjhElC-80">
          <mxGeometry relative="1" as="geometry" />
        </mxCell>
        <mxCell id="EK-wam1igdU6rYTjhElC-74" value="ProductSyncedSucceeded" style="rounded=0;whiteSpace=wrap;html=1;" vertex="1" parent="1">
          <mxGeometry x="651" y="780" width="160" height="60" as="geometry" />
        </mxCell>
        <mxCell id="EK-wam1igdU6rYTjhElC-109" value="" style="edgeStyle=orthogonalEdgeStyle;rounded=0;orthogonalLoop=1;jettySize=auto;html=1;" edge="1" parent="1" source="EK-wam1igdU6rYTjhElC-75" target="EK-wam1igdU6rYTjhElC-108">
          <mxGeometry relative="1" as="geometry" />
        </mxCell>
        <mxCell id="EK-wam1igdU6rYTjhElC-75" value="&lt;span style=&quot;font-family: &amp;#34;verdana&amp;#34; ; font-size: 8px&quot;&gt;ProductSyncedFailed&lt;/span&gt;" style="rounded=0;whiteSpace=wrap;html=1;" vertex="1" parent="1">
          <mxGeometry x="261" y="890" width="259" height="34" as="geometry" />
        </mxCell>
        <mxCell id="EK-wam1igdU6rYTjhElC-111" style="edgeStyle=orthogonalEdgeStyle;rounded=0;orthogonalLoop=1;jettySize=auto;html=1;exitX=1;exitY=0.5;exitDx=0;exitDy=0;entryX=1;entryY=0.5;entryDx=0;entryDy=0;" edge="1" parent="1" source="EK-wam1igdU6rYTjhElC-80" target="EK-wam1igdU6rYTjhElC-124">
          <mxGeometry relative="1" as="geometry">
            <mxPoint x="500" y="1767.5" as="targetPoint" />
            <Array as="points">
              <mxPoint x="940" y="940" />
              <mxPoint x="940" y="1110" />
            </Array>
          </mxGeometry>
        </mxCell>
        <mxCell id="EK-wam1igdU6rYTjhElC-121" style="edgeStyle=orthogonalEdgeStyle;rounded=0;orthogonalLoop=1;jettySize=auto;html=1;exitX=0.5;exitY=1;exitDx=0;exitDy=0;" edge="1" parent="1" source="EK-wam1igdU6rYTjhElC-80" target="EK-wam1igdU6rYTjhElC-120">
          <mxGeometry relative="1" as="geometry" />
        </mxCell>
        <mxCell id="EK-wam1igdU6rYTjhElC-80" value="isExpiringAfterLastSync" style="rhombus;whiteSpace=wrap;html=1;" vertex="1" parent="1">
          <mxGeometry x="646" y="895" width="170" height="90" as="geometry" />
        </mxCell>
        <mxCell id="EK-wam1igdU6rYTjhElC-82" value="Yes" style="text;html=1;align=center;verticalAlign=middle;resizable=0;points=[];autosize=1;strokeColor=none;fillColor=none;" vertex="1" parent="1">
          <mxGeometry x="542.5" y="590" width="40" height="20" as="geometry" />
        </mxCell>
        <mxCell id="EK-wam1igdU6rYTjhElC-97" value="No" style="text;html=1;align=center;verticalAlign=middle;resizable=0;points=[];autosize=1;strokeColor=none;fillColor=none;" vertex="1" parent="1">
          <mxGeometry x="740" y="1000" width="30" height="20" as="geometry" />
        </mxCell>
        <mxCell id="EK-wam1igdU6rYTjhElC-102" style="edgeStyle=orthogonalEdgeStyle;rounded=0;orthogonalLoop=1;jettySize=auto;html=1;exitX=0.5;exitY=1;exitDx=0;exitDy=0;" edge="1" parent="1" source="EK-wam1igdU6rYTjhElC-99" target="EK-wam1igdU6rYTjhElC-75">
          <mxGeometry relative="1" as="geometry" />
        </mxCell>
        <mxCell id="EK-wam1igdU6rYTjhElC-99" value="CategoryBySyncStatusAtLastTime" style="rhombus;whiteSpace=wrap;html=1;rounded=0;shadow=1;fontFamily=Verdana;fontSize=8;strokeWidth=1;" vertex="1" parent="1">
          <mxGeometry x="251" y="765" width="280" height="90" as="geometry" />
        </mxCell>
        <mxCell id="EK-wam1igdU6rYTjhElC-101" value="succeeded" style="text;html=1;align=center;verticalAlign=middle;resizable=0;points=[];autosize=1;strokeColor=none;fillColor=none;" vertex="1" parent="1">
          <mxGeometry x="560" y="788.25" width="70" height="20" as="geometry" />
        </mxCell>
        <mxCell id="EK-wam1igdU6rYTjhElC-103" value="failed" style="text;html=1;align=center;verticalAlign=middle;resizable=0;points=[];autosize=1;strokeColor=none;fillColor=none;" vertex="1" parent="1">
          <mxGeometry x="396" y="860" width="40" height="20" as="geometry" />
        </mxCell>
        <mxCell id="EK-wam1igdU6rYTjhElC-105" value="syncNotTriggered" style="text;html=1;align=center;verticalAlign=middle;resizable=0;points=[];autosize=1;strokeColor=none;fillColor=none;" vertex="1" parent="1">
          <mxGeometry x="137" y="788.25" width="110" height="20" as="geometry" />
        </mxCell>
        <mxCell id="EK-wam1igdU6rYTjhElC-107" value="No" style="text;html=1;align=center;verticalAlign=middle;resizable=0;points=[];autosize=1;strokeColor=none;fillColor=none;" vertex="1" parent="1">
          <mxGeometry x="200" y="590" width="30" height="20" as="geometry" />
        </mxCell>
        <mxCell id="EK-wam1igdU6rYTjhElC-118" style="edgeStyle=orthogonalEdgeStyle;rounded=0;orthogonalLoop=1;jettySize=auto;html=1;exitX=1;exitY=0.5;exitDx=0;exitDy=0;entryX=1;entryY=0.5;entryDx=0;entryDy=0;" edge="1" parent="1" source="EK-wam1igdU6rYTjhElC-108" target="EK-wam1igdU6rYTjhElC-124">
          <mxGeometry relative="1" as="geometry">
            <mxPoint x="499.0952380952381" y="1768" as="targetPoint" />
            <Array as="points">
              <mxPoint x="570" y="989" />
              <mxPoint x="570" y="1110" />
            </Array>
          </mxGeometry>
        </mxCell>
        <mxCell id="EK-wam1igdU6rYTjhElC-133" style="edgeStyle=orthogonalEdgeStyle;rounded=0;orthogonalLoop=1;jettySize=auto;html=1;exitX=0;exitY=0.5;exitDx=0;exitDy=0;entryX=1;entryY=0.5;entryDx=0;entryDy=0;" edge="1" parent="1" source="EK-wam1igdU6rYTjhElC-108" target="EK-wam1igdU6rYTjhElC-116">
          <mxGeometry relative="1" as="geometry" />
        </mxCell>
        <mxCell id="EK-wam1igdU6rYTjhElC-108" value="tooManyTimesRencenttly" style="rhombus;whiteSpace=wrap;html=1;rounded=0;" vertex="1" parent="1">
          <mxGeometry x="264.75" y="961.25" width="251.5" height="55" as="geometry" />
        </mxCell>
        <mxCell id="EK-wam1igdU6rYTjhElC-114" value="Yes" style="text;html=1;align=center;verticalAlign=middle;resizable=0;points=[];autosize=1;strokeColor=none;fillColor=none;" vertex="1" parent="1">
          <mxGeometry x="830" y="920" width="40" height="20" as="geometry" />
        </mxCell>
        <mxCell id="EK-wam1igdU6rYTjhElC-116" value="NotifyAdministrator" style="rounded=0;whiteSpace=wrap;html=1;" vertex="1" parent="1">
          <mxGeometry x="86" y="958.75" width="120" height="60" as="geometry" />
        </mxCell>
        <mxCell id="EK-wam1igdU6rYTjhElC-119" value="&lt;span style=&quot;font-family: &amp;#34;verdana&amp;#34; ; font-size: 8px&quot;&gt;NotTryToSync&lt;/span&gt;" style="rounded=0;whiteSpace=wrap;html=1;" vertex="1" parent="1">
          <mxGeometry x="-230" y="1051" width="129" height="44" as="geometry" />
        </mxCell>
        <mxCell id="EK-wam1igdU6rYTjhElC-120" value="&#xa;&#xa;&lt;span style=&quot;color: rgb(0, 0, 0); font-family: verdana; font-size: 8px; font-style: normal; font-weight: 400; letter-spacing: normal; text-align: center; text-indent: 0px; text-transform: none; word-spacing: 0px; background-color: rgb(248, 249, 250); display: inline; float: none;&quot;&gt;NotTryToSync&lt;/span&gt;&#xa;&#xa;" style="rounded=0;whiteSpace=wrap;html=1;" vertex="1" parent="1">
          <mxGeometry x="671" y="1035" width="120" height="60" as="geometry" />
        </mxCell>
        <mxCell id="EK-wam1igdU6rYTjhElC-122" value="No" style="text;html=1;align=center;verticalAlign=middle;resizable=0;points=[];autosize=1;strokeColor=none;fillColor=none;" vertex="1" parent="1">
          <mxGeometry x="516.25" y="958.75" width="30" height="20" as="geometry" />
        </mxCell>
        <mxCell id="EK-wam1igdU6rYTjhElC-123" value="Yes" style="text;html=1;align=center;verticalAlign=middle;resizable=0;points=[];autosize=1;strokeColor=none;fillColor=none;" vertex="1" parent="1">
          <mxGeometry x="221" y="965" width="40" height="20" as="geometry" />
        </mxCell>
        <mxCell id="EK-wam1igdU6rYTjhElC-124" value="&lt;span style=&quot;font-family: &amp;#34;verdana&amp;#34; ; font-size: 8px&quot;&gt;TryToSync&lt;/span&gt;" style="rounded=0;whiteSpace=wrap;html=1;" vertex="1" parent="1">
          <mxGeometry x="340" y="1095" width="111" height="30" as="geometry" />
        </mxCell>
        <mxCell id="EK-wam1igdU6rYTjhElC-129" value="" style="edgeStyle=orthogonalEdgeStyle;rounded=0;orthogonalLoop=1;jettySize=auto;html=1;" edge="1" parent="1" source="EK-wam1igdU6rYTjhElC-127" target="EK-wam1igdU6rYTjhElC-128">
          <mxGeometry relative="1" as="geometry" />
        </mxCell>
        <mxCell id="EK-wam1igdU6rYTjhElC-127" value="ProductIsGoingToTryToSync" style="rounded=0;whiteSpace=wrap;html=1;" vertex="1" parent="1">
          <mxGeometry x="1730" y="270" width="190" height="70" as="geometry" />
        </mxCell>
        <mxCell id="EK-wam1igdU6rYTjhElC-131" style="edgeStyle=orthogonalEdgeStyle;rounded=0;orthogonalLoop=1;jettySize=auto;html=1;entryX=0;entryY=0.5;entryDx=0;entryDy=0;" edge="1" parent="1" source="EK-wam1igdU6rYTjhElC-128" target="EK-wam1igdU6rYTjhElC-130">
          <mxGeometry relative="1" as="geometry">
            <mxPoint x="2040" y="497.5" as="targetPoint" />
          </mxGeometry>
        </mxCell>
        <mxCell id="EK-wam1igdU6rYTjhElC-128" value="doesItMachConditions" style="rhombus;whiteSpace=wrap;html=1;rounded=0;" vertex="1" parent="1">
          <mxGeometry x="1722.5" y="440" width="205" height="115" as="geometry" />
        </mxCell>
        <mxCell id="EK-wam1igdU6rYTjhElC-130" value="" style="rounded=0;whiteSpace=wrap;html=1;" vertex="1" parent="1">
          <mxGeometry x="2050" y="467.5" width="120" height="60" as="geometry" />
        </mxCell>
      </root>
    </mxGraphModel>
  </diagram>
</mxfile>
